<svg id="Capa_1" enable-background="new 0 0 497 497" height="512" viewBox="0 0 497 497" width="512" xmlns="http://www.w3.org/2000/svg"><g id="_x3C_Group_x3E__35_"><g><path d="m276.332 497h-63.664c-25.791 0-38.903-22.446-33.806-47.713 0 0 16.892-126.441 16.681-190.979-.102-31.227 3.357-60.936 3.357-60.936h93.664l9.784 55.628-.006 4.998c-.005 4.041.01 8.082.043 12.122.171 20.6-13.553 39.801-12.385 60.359.722 12.708 16.029 26.79 17.131 39.471 2.195 25.255 5.143 50.448 8.842 75.544l.401 2.723c5.036 25.242-14.286 48.783-40.042 48.783z" fill="#ffe8c8"/></g><g><path d="m119.414 497h-35.828c-14.515 0-18.571-19.426-15.703-33.755l4.085-20.766c3.714-18.553 9.328-36.912 9.872-55.83l-7.366-59.574h45.494l10.351 60.115c.569 18.448 2.656 36.816 6.239 54.916l5.39 27.228c2.835 14.316-8.039 27.666-22.534 27.666z" fill="#ffe8c8"/></g><g><path d="m411.536 497h-40.073c-16.234 0-17.087-18.173-13.879-34.096l5.932-29.443c4.154-20.615 3.927-36.344 4.536-57.365l-6.781-67.914h43.036l19.146 57.808.279 8.991c.637 20.499 2.971 40.909 6.978 61.022l6.029 30.255c3.172 15.907-8.991 30.742-25.203 30.742z" fill="#ffe8c8"/></g><g><g><path d="m186.48 197.37c-.01-2.578.124 39.002.18 55.63h.002c.331 65.28-4.371 130.564-14.022 195.13-5.09 25.27 14.24 48.87 40.03 48.87h23c-25.79 0-45.12-23.6-40.03-48.87 3.219-21.506 5.875-43.085 7.988-64.715.137-1.407.76-2.726 1.783-3.702 9.593-9.151 15.589-22.076 15.589-36.393 0-11.632-3.964-22.624-10.989-31.396-.884-1.104-1.322-2.498-1.268-3.911.327-8.548.569-17.101.726-25.656.298-16.316 13.673-29.357 29.991-29.357h62.89l.06-55.63h-92.93z" fill="#fdd9b4"/></g><g><path d="m86.37 442.79c2.593-12.966 4.417-26.074 5.464-39.252.758-9.533 8.822-16.855 18.382-16.586 6.391.179 12.778.559 19.157 1.129.38-.358.566-.533.946-.891l-1.86-60.12h-33.989-20c-.595 44.537-2.187 99.196-13.41 142.22-2.87 14.32 8.01 27.71 22.53 27.71h20c-14.52 0-25.4-13.39-22.53-27.71z" fill="#fdd9b4"/></g><g><path d="m372.2 436.76c3.737-18.18 5.896-36.706 6.869-55.268.505-9.648 8.584-17.178 18.243-17.011 8.72.151 17.435.66 26.138 1.509l-1.79-57.81h-60.39c-.655 49.493-2.462 110.22-15 158.02-3.21 15.93 8.96 30.8 25.19 30.8h20c-16.23 0-28.4-14.87-25.19-30.8z" fill="#fdd9b4"/></g></g><g><path d="m307.088 231h-125.176c-17.6 0-34.411-5.036-48.732-14.022-14.713-9.232-7.445-24.318-15.054-40.713l-1.563-3.367 252.83-.013c1.737.011 2.88 1.814 2.149 3.389-7.609 16.395-1.01 31.471-15.723 40.704-14.32 8.986-31.131 14.022-48.731 14.022z" fill="#ffe8c8"/></g><g><path d="m391.79 174.58-1.56 3.37c-7.61 16.39-19.7 29.8-34.41 39.03-36.75-6.05-74.11-9.11-111.32-9.11s-74.57 3.06-111.32 9.11c-14.71-9.23-26.8-22.64-34.41-39.03l-1.56-3.37z" fill="#fdd9b4"/></g><path d="m371.767 190.223c-88.366-17.067-169.901-19.79-258.267-2.723-36.022 6.957-60.255-3.845-60.255-40.511 0-19.834 8.167-32.833 24.851-43.574l64.353-56.997 46.923-30.209c33.571-21.612 76.685-21.612 110.255 0l121.343 78.12c16.684 10.741 26.766 29.217 26.766 49.051 0 3.391-.286 6.704-.834 9.92-5.373 31.552-42.445 43.237-75.135 36.923z" fill="#d77f4a"/><path d="m446.9 153.3c-4.75 27.91-29.21 48.45-57.42 48.45-3.69 0-7.43-.35-11.21-1.08-88.36-17.07-179.18-17.07-267.54 0-3.78.73-7.52 1.08-11.21 1.08-31.46 0-58.26-25.54-58.26-58.37 0-9.92 2.52-19.49 7.13-27.93 4.61-8.45 11.3-15.75 19.64-21.12l74.42-47.91c1.65 59.31 50.24 106.88 109.95 106.88z" fill="#c86d36"/><g><path d="m307.13 369.95c-8.96-2.15-17.2-6.71-23.93-13.36-9.8-9.68-15.2-22.61-15.2-36.4 0-17.47 8.77-33.55 23.45-43.02l10.93-7.05c.28 33.34 1.87 66.64 4.75 99.83z" fill="#fdd9b4"/></g><path d="m452.309 340.606-124.596.511c-17.99 3.479-28.085-17.106-28.085-17.106 0-9.917.859-16.587 9.191-21.957l21.222-23.581 33.927-21.867c16.766-10.806 38.298-10.806 55.064 0l60.601 39.06c8.332 5.369 13.367 14.607 13.367 24.524 0 1.308-.085 2.594-.25 3.851-2.14 16.363-23.735 19.796-40.441 16.565z" fill="#d77f4a"/><path d="m158.096 360.436c-42.392-8.251-76.757-1.783-119.149 6.468 0 0-18.383.192-18.383-17.534l-1.702-2.242c0-9.589-5.961-14.865 2.043-20.058l30.357-29.798 23.792-15.436c16.105-10.449 36.789-10.449 52.894 0l58.213 37.767c8.004 5.193 12.841 14.125 12.841 23.714 0 1.296-.086 2.568-.251 3.812-2.103 15.774-40.655 13.307-40.655 13.307z" fill="#d77f4a"/><g fill="#c86d36"><path d="m198.9 345.63c-1.17 14.73-13.49 25.9-27.84 25.9-1.77 0-3.57-.17-5.38-.52-42.4-8.25-85.96-8.25-128.36 0-1.81.35-3.61.52-5.38.52-15.09 0-27.94-12.35-27.94-28.21 0-4.8 1.21-9.42 3.42-13.51 2.21-4.08 5.42-7.61 9.42-10.21l34.42-22.33v4.36c0 24.3 19.7 44 44 44z"/><path d="m492.74 324.04c-1.89 14.51-14.37 25.33-28.83 25.33-1.84 0-3.71-.18-5.6-.54-44.13-8.53-89.49-8.53-133.62 0-1.89.36-3.76.54-5.6.54-15.71 0-29.09-12.77-29.09-29.18 0-4.96 1.26-9.75 3.56-13.97s5.64-7.87 9.81-10.56l26.67-17.19c9.91 26.61 35.55 45.57 65.61 45.57z"/></g></g></svg>